/* XPM */
static char * OTP_xpm[] = {
"57 17 84 1",
" 	c None",
".	c #1D272C",
"+	c #28343A",
"@	c #21292E",
"#	c #232E33",
"$	c #161D20",
"%	c #2D4D56",
"&	c #1C6976",
"*	c #1C6470",
"=	c #253E44",
"-	c #1D262A",
";	c #5BD1E1",
">	c #78D6E4",
",	c #66D2E2",
"'	c #00BCD4",
")	c #00B3CA",
"!	c #134A51",
"~	c #181F23",
"{	c #000000",
"]	c #76D5E4",
"^	c #8DDAE7",
"/	c #0ABED5",
"(	c #62D2E2",
"_	c #09BED5",
":	c #00BDD5",
"<	c #00B4CB",
"[	c #008A9C",
"}	c #006472",
"|	c #132F34",
"1	c #182023",
"2	c #015C7D",
"3	c #0274A8",
"4	c #144366",
"5	c #181F22",
"6	c #0282BE",
"7	c #144467",
"8	c #212A2E",
"9	c #1B616D",
"0	c #00ADC3",
"a	c #00597B",
"b	c #026898",
"c	c #2F3E46",
"d	c #3F5761",
"e	c #31555F",
"f	c #0A4E70",
"g	c #32424A",
"h	c #5C7885",
"i	c #5C7785",
"j	c #5B7683",
"k	c #3A4C55",
"l	c #155375",
"m	c #0282BF",
"n	c #134366",
"o	c #171D1F",
"p	c #1A2428",
"q	c #2E3C43",
"r	c #2C3B41",
"s	c #273E45",
"t	c #284E57",
"u	c #284D56",
"v	c #263D43",
"w	c #064C6F",
"x	c #063F64",
"y	c #0C0D0A",
"z	c #172C54",
"A	c #1A3D65",
"B	c #1A3C64",
"C	c #15274F",
"D	c #015379",
"E	c #039AE1",
"F	c #02426A",
"G	c #0C0F15",
"H	c #1C254F",
"I	c #1D2652",
"J	c #1A214A",
"K	c #0A0E16",
"L	c #01547B",
"M	c #0277AD",
"N	c #2F3E44",
"O	c #36464E",
"P	c #35464E",
"Q	c #002334",
"R	c #014F76",
"S	c #012033",
"                                                         ",
"                                       .+@@@@@@@@@@@@#$  ",
"                                       +%&&&&&&&&&&&*=-  ",
"                                       @&;>,'''''''')!~  ",
"    {{{{        {{{{{{{{    {{{{{{     @&]^/'''''''')!~  ",
"   {{  {{{         {{       {{   {{    @&(_'''''''':<!~  ",
"  {{    {{         {{       {{   {{    @&''''''''''[}|1  ",
"  {{    {{         {{       {{   {{    @&''''''''''2345  ",
"  {{    {{{        {{       {{   {{    @&''''''''''2675  ",
"  {{    {{         {{       {{{{{{     890000000000ab75  ",
"  {{    {{         {{       {{         cdeeeeeeeeeefb75  ",
"   {{  {{{  {{     {{  {{   {{     {{  ghiiiijkkjiilmno  ",
"    {{{{    {{     {{  {{   {{     {{  pqqqqrstuvrqwmxy  ",
"                                             zABC  DEF   ",
"                                            GHIIJK LMF   ",
"                                            NOOOP# QRS   ",
"                                                         "};
